HIERARCHY
ROOT Hips
{
 OFFSET 0.000000 0.000000 0.000000
 CHANNELS 6 Xposition Yposition Zposition Yrotation Xrotation Zrotation
 JOINT Chest
 {
  OFFSET 0.000000 9.585900 0.002600
  CHANNELS 3 Yrotation Xrotation Zrotation
  JOINT Chest2
  {
   OFFSET 0.000000 9.601200 -0.005300
   CHANNELS 3 Yrotation Xrotation Zrotation
   JOINT Chest3
   {
    OFFSET 0.000000 9.561800 0.000000
    CHANNELS 3 Yrotation Xrotation Zrotation
    JOINT Chest4
    {
     OFFSET 0.000000 9.552100 0.000000
     CHANNELS 3 Yrotation Xrotation Zrotation
     JOINT Neck
     {
      OFFSET 0.000000 14.453000 0.000000
      CHANNELS 3 Yrotation Xrotation Zrotation
      JOINT Head
      {
       OFFSET 0.000000 8.936500 -0.011300
       CHANNELS 3 Yrotation Xrotation Zrotation
       End Site
       {
        OFFSET 0.000000 17.073600 -0.006000
       }
      }
     }
     JOINT RightCollar
     {
      OFFSET -2.921100 9.558500 0.000000
      CHANNELS 3 Yrotation Xrotation Zrotation
      JOINT RightShoulder
      {
       OFFSET -13.519700 0.000000 0.000000
       CHANNELS 3 Yrotation Xrotation Zrotation
       JOINT RightElbow
       {
        OFFSET 0.000000 -29.696600 0.000000
        CHANNELS 3 Yrotation Xrotation Zrotation
        JOINT RightWrist
        {
         OFFSET 0.000000 -24.004700 0.000000
         CHANNELS 3 Yrotation Xrotation Zrotation
         End Site
         {
          OFFSET 0.000000 -17.728500 0.000000
         }
        }
       }
      }
     }
     JOINT LeftCollar
     {
      OFFSET 2.921100 9.558500 0.000000
      CHANNELS 3 Yrotation Xrotation Zrotation
      JOINT LeftShoulder
      {
       OFFSET 13.519700 0.000000 0.000000
       CHANNELS 3 Yrotation Xrotation Zrotation
       JOINT LeftElbow
       {
        OFFSET 0.000000 -29.696600 0.000000
        CHANNELS 3 Yrotation Xrotation Zrotation
        JOINT LeftWrist
        {
         OFFSET 0.000000 -24.004700 0.000000
         CHANNELS 3 Yrotation Xrotation Zrotation
         End Site
         {
          OFFSET 0.000000 -17.728500 0.000000
         }
        }
       }
      }
     }
    }
   }
  }
 }
 JOINT RightHip
 {
  OFFSET -7.771700 -0.012900 -0.001300
  CHANNELS 3 Yrotation Xrotation Zrotation
  JOINT RightKnee
  {
   OFFSET 0.000000 -40.869800 0.001200
   CHANNELS 3 Yrotation Xrotation Zrotation
   JOINT RightAnkle
   {
    OFFSET 0.000000 -39.717900 0.002100
    CHANNELS 3 Yrotation Xrotation Zrotation
    JOINT RightToe
    {
     OFFSET 0.000000 -4.965400 11.033500
     CHANNELS 3 Yrotation Xrotation Zrotation
     End Site
     {
      OFFSET 0.000000 -1.423100 5.872300
     }
    }
   }
  }
 }
 JOINT LeftHip
 {
  OFFSET 7.771700 -0.012900 -0.001300
  CHANNELS 3 Yrotation Xrotation Zrotation
  JOINT LeftKnee
  {
   OFFSET 0.000000 -40.869800 0.001200
   CHANNELS 3 Yrotation Xrotation Zrotation
   JOINT LeftAnkle
   {
    OFFSET 0.000000 -39.717900 0.002100
    CHANNELS 3 Yrotation Xrotation Zrotation
    JOINT LeftToe
    {
     OFFSET 0.000000 -4.965400 11.033500
     CHANNELS 3 Yrotation Xrotation Zrotation
     End Site
     {
      OFFSET 0.000000 -1.423100 5.872300
     }
    }
   }
  }
 }
}
MOTION
Frames: 11
Frame Time: 0.008333
-69.563080 46.876484 -3.735635 170.565130 -30.937721 -3.351875 0.247382 18.531058 0.865558 0.068058 2.125285 0.091739 0.033295 3.512395 0.163735 0.172838 16.146493 0.816911 1.017633 16.408189 -2.151111 2.642675 -5.255208 -4.348160 1.273775 1.011355 -1.713279 6.242036 -9.016443 -15.907842 -40.004700 -54.996523 87.202192 0.085164 9.916051 -17.865456 -0.129788 0.302787 2.447039 -5.078180 -3.888820 12.216300 71.557753 -81.009507 -105.717027 -3.527032 13.037833 7.326583 -12.741673 -54.418793 1.793903 -158.289938 81.182932 -146.669947 -8.036236 -13.773846 -10.365016 0.003276 -0.125384 0.119610 -5.636508 -57.447517 17.013385 -130.166563 81.379536 -132.785331 10.412195 -9.232136 2.832093 -0.004810 0.018605 -0.057651
-69.566278 46.875215 -3.732620 170.539298 -30.951671 -3.363423 0.239827 18.542150 0.885165 0.052569 2.125776 0.094436 -0.022513 3.508167 0.182591 0.204735 16.148863 0.810434 1.028538 16.428460 -2.127197 2.653730 -5.218163 -4.306908 1.264576 1.034188 -1.699369 6.265119 -9.022351 -15.924229 -39.956395 -55.009457 87.184018 0.040907 9.893626 -17.903591 -0.118809 0.307529 2.435611 -5.109686 -3.873800 12.236130 71.596679 -81.002097 -105.732240 -3.578540 13.084164 7.291577 -12.700080 -54.405296 1.823150 -157.976602 81.177387 -146.380455 -8.022065 -13.736590 -10.324404 -0.027639 -0.113476 0.101590 -5.669043 -57.431445 17.054080 -130.203541 81.376181 -132.798087 10.420573 -9.238284 2.794857 0.018083 0.023694 -0.042177
-69.568823 46.874566 -3.729751 170.513903 -30.963438 -3.378339 0.258787 18.551827 0.912645 -0.026141 2.119082 0.116434 0.031888 3.513044 0.168491 0.177606 16.147631 0.826871 1.036114 16.448597 -2.104344 2.658916 -5.181505 -4.266546 1.256376 1.053368 -1.688697 6.308915 -9.028682 -15.961629 -39.988962 -54.967697 87.203705 0.044923 9.895603 -17.926457 -0.080490 0.312128 2.399280 -5.125190 -3.866064 12.246077 71.461603 -81.031998 -105.638487 -3.580535 13.101492 7.309531 -12.613723 -54.393045 1.823539 -157.745563 81.168151 -146.127147 -8.029786 -13.713856 -10.300982 -0.031200 -0.102489 0.091460 -5.705423 -57.417030 17.105979 -130.249899 81.383307 -132.842655 10.448019 -9.243019 2.782318 0.027256 0.027080 -0.033245
-69.574032 46.874227 -3.727741 170.498069 -30.973205 -3.380253 0.237837 18.557051 0.924459 -0.021526 2.120146 0.112343 0.021985 3.511394 0.175809 0.163033 16.147432 0.839139 1.040966 16.469344 -2.082357 2.659362 -5.143654 -4.226692 1.278855 1.064606 -1.712743 6.310756 -9.030606 -15.962000 -40.024634 -54.932169 87.222777 0.051956 9.902198 -17.943221 -0.091449 0.316179 2.397688 -5.095987 -3.858618 12.220875 71.351370 -81.049562 -105.552401 -3.580465 13.116939 7.319050 -12.548653 -54.385234 1.806765 -157.637559 81.164575 -146.010311 -8.027696 -13.696611 -10.284615 -0.047539 -0.090781 0.079444 -5.733189 -57.404326 17.128875 -130.314832 81.394846 -132.917921 10.474868 -9.246184 2.778707 0.034863 0.029237 -0.030861
-69.578218 46.874163 -3.725714 170.487507 -30.980812 -3.388575 0.178868 18.553784 0.938941 0.035917 2.130419 0.091895 -0.013684 3.504813 0.195339 0.159751 16.148258 0.846376 1.049398 16.488105 -2.077869 2.647843 -5.101581 -4.168753 1.295638 1.076089 -1.735297 6.289881 -9.031902 -15.943673 -40.013347 -54.929309 87.225143 0.047732 9.908428 -17.961024 -0.106213 0.317789 2.397559 -5.144207 -3.831170 12.260691 71.491777 -80.998904 -105.626532 -3.569805 13.117268 7.335837 -12.486901 -54.375836 1.788949 -157.556069 81.162900 -145.902572 -8.034122 -13.688378 -10.282107 -0.028753 -0.077774 0.072697 -5.763246 -57.394679 17.154806 -130.381753 81.404396 -132.979852 10.467127 -9.249396 2.767094 0.057146 0.034199 -0.031058
-69.583176 46.874070 -3.723838 170.486188 -30.985586 -3.393512 0.152664 18.551822 0.949374 0.036328 2.130773 0.094325 -0.018611 3.504149 0.197403 0.148051 16.147578 0.857753 1.065667 16.501144 -2.106199 2.618670 -5.053103 -4.075807 1.289681 1.093231 -1.740447 6.293694 -9.035230 -15.940710 -39.974166 -54.947687 87.208026 0.032868 9.902938 -17.980751 -0.159160 0.322910 2.437109 -5.097288 -3.820394 12.219454 71.583187 -80.969037 -105.684966 -3.594333 13.159388 7.296041 -12.421721 -54.371938 1.766936 -157.452210 81.161489 -145.787569 -8.048616 -13.678609 -10.255438 -0.025179 -0.056751 0.045174 -5.779443 -57.392644 17.159323 -130.482333 81.414265 -133.071411 10.451149 -9.247821 2.756446 0.035315 0.032379 -0.023689
-69.588439 46.874458 -3.723048 170.473693 -30.996464 -3.385531 0.139039 18.555910 0.953493 0.024656 2.129417 0.095283 -0.010409 3.504880 0.200036 0.150644 16.150626 0.853548 1.050604 16.518194 -2.061487 2.611482 -5.011185 -4.041322 1.273912 1.107195 -1.718914 6.248973 -9.036172 -15.896949 -39.865748 -55.005456 87.156526 0.023788 9.896115 -17.996550 -0.172815 0.326170 2.452645 -5.097619 -3.813821 12.215212 71.486191 -80.970336 -105.601583 -3.590754 13.166621 7.306197 -12.354592 -54.367835 1.756935 -157.449019 81.173248 -145.818419 -8.075895 -13.658610 -10.186123 -0.047689 -0.046301 0.022918 -5.759777 -57.387195 17.144325 -130.557090 81.424495 -133.135870 10.437092 -9.241375 2.751787 0.035436 0.027033 -0.016537
-69.593375 46.874068 -3.721027 170.462687 -30.998597 -3.376688 0.130034 18.551869 0.957175 0.003225 2.122809 0.112210 0.007547 3.511046 0.185918 0.149547 16.153171 0.850875 1.040258 16.536285 -2.020255 2.597364 -4.972167 -4.001578 1.259975 1.120397 -1.694536 6.250695 -9.036160 -15.900213 -39.858002 -55.018712 87.146948 0.029236 9.900860 -17.989860 -0.177429 0.331379 2.458157 -5.088857 -3.814087 12.200903 71.202789 -81.012761 -105.375392 -3.546765 13.123243 7.365022 -12.279528 -54.373685 1.739518 -157.415757 81.177364 -145.785906 -8.116460 -13.649286 -10.154984 -0.036800 -0.038882 0.017444 -5.738733 -57.390659 17.129125 -130.566378 81.426322 -133.133728 10.394176 -9.233983 2.757424 0.026479 0.023517 -0.015566
-69.595964 46.873380 -3.718202 170.449650 -30.998397 -3.376620 0.136313 18.548220 0.968052 0.002832 2.122760 0.112895 0.006959 3.511023 0.186994 0.134506 16.147539 0.868589 1.035006 16.558629 -1.996766 2.598326 -4.958267 -4.010003 1.253250 1.145494 -1.657159 6.259644 -9.036717 -15.931844 -39.902233 -55.005505 87.178278 0.060772 9.928654 -17.974459 -0.164133 0.341142 2.434274 -5.122912 -3.811056 12.237102 71.258002 -80.979443 -105.400232 -3.565786 13.144439 7.359426 -12.208582 -54.383164 1.740646 -157.354914 81.180110 -145.723848 -8.152658 -13.633325 -10.131312 -0.035878 -0.035009 0.023728 -5.702900 -57.396835 17.110218 -130.537779 81.422932 -133.081580 10.405311 -9.234244 2.752432 0.047603 0.024264 -0.006368
-69.598289 46.872921 -3.716168 170.439364 -31.003986 -3.374228 0.142567 18.550532 0.976959 0.002404 2.122853 0.113592 0.006305 3.511330 0.188010 0.128322 16.145768 0.887313 1.027311 16.578061 -1.973048 2.571987 -4.912684 -3.937515 1.253743 1.154851 -1.656343 6.252836 -9.031115 -15.934222 -39.914130 -55.004287 87.194808 0.068394 9.930812 -17.964873 -0.169923 0.349773 2.433426 -5.139678 -3.810933 12.301128 71.343500 -80.928099 -105.483385 -3.564400 13.141349 7.378379 -12.158628 -54.385809 1.741920 -157.301280 81.182619 -145.674704 -8.177684 -13.617217 -10.123348 -0.041048 -0.035077 0.042524 -5.675117 -57.393128 17.093930 -130.524853 81.426800 -133.055075 10.433007 -9.235631 2.743648 0.039030 0.027192 -0.000401
-69.600600 46.872033 -3.714035 170.416771 -31.009670 -3.361762 0.145782 18.549987 0.988459 0.002952 2.122772 0.115046 0.007344 3.508106 0.200594 0.130788 16.148101 0.889503 1.024845 16.608388 -1.911259 2.542374 -4.875822 -3.908527 1.251970 1.162670 -1.665111 6.252329 -9.026412 -15.952105 -39.925115 -54.998750 87.208416 0.063762 9.923052 -17.949909 -0.175141 0.366644 2.451388 -5.133852 -3.823623 12.271760 71.311972 -80.970301 -105.477570 -3.521429 13.125067 7.404376 -12.117742 -54.385171 1.739426 -157.247358 81.183214 -145.619853 -8.194022 -13.611906 -10.138532 -0.041062 -0.033531 0.051957 -5.631227 -57.389985 17.074916 -130.491456 81.429507 -133.011333 10.447573 -9.236693 2.736784 0.041239 0.028293 0.011293
